<?xml version="1.0" ?><svg viewBox="0 0 64 64" xmlns="http://www.w3.org/2000/svg"><title/><g data-name="Black Hole" id="Black_Hole"><path d="M52.7646,12.2357h1.8877a1,1,0,0,0,0-2H52.7646a1,1,0,0,0,0,2Z"/><path d="M23.8994,4.5014a1.0006,1.0006,0,0,0,1.3662-.3662L26.21,2.5a1,1,0,0,0-1.7324-1l-.9439,1.6348A1,1,0,0,0,23.8994,4.5014Z"/><path d="M4.501,23.9,3.5571,22.265a1,1,0,0,0-1.7324,1L2.7686,24.9a1,1,0,1,0,1.7324-1Z"/><path d="M11.2354,51.765H9.3477a1,1,0,0,0,0,2h1.8877a1,1,0,0,0,0-2Z"/><path d="M40.1006,59.4994a.9984.9984,0,0,0-1.3662.3662L37.7905,61.5a1,1,0,0,0,1.7324,1l.9439-1.6348A1,1,0,0,0,40.1006,59.4994Z"/><path d="M59.3438,35.8314A18.6591,18.6591,0,0,0,52.53,28.6793,20.8568,20.8568,0,0,0,41.7378,13.61a17.8063,17.8063,0,0,1,7.2515-1.3745,1,1,0,0,0,0-2A18.6582,18.6582,0,0,0,39.39,12.5593a20.5816,20.5816,0,0,0-18.4521,1.8339,17.802,17.802,0,0,1,2.44-6.9885,1,1,0,1,0-1.7324-1,18.6648,18.6648,0,0,0-2.7873,9.4646A20.7844,20.7844,0,0,0,11.1792,32c0,.2616.03.5159.0393.7752a17.8051,17.8051,0,0,1-4.83-5.6063,1,1,0,0,0-1.7324,1,18.6725,18.6725,0,0,0,6.8143,7.1574A20.8569,20.8569,0,0,0,22.2622,50.3906a17.8064,17.8064,0,0,1-7.2515,1.3744,1,1,0,0,0,0,2A18.6582,18.6582,0,0,0,24.61,51.4415a20.5816,20.5816,0,0,0,18.4521-1.8339,17.802,17.802,0,0,1-2.44,6.9885,1,1,0,0,0,1.7324,1,18.6652,18.6652,0,0,0,2.7873-9.4647A20.784,20.784,0,0,0,52.8208,32c0-.2615-.03-.5155-.0392-.7747a17.8056,17.8056,0,0,1,4.83,5.6057,1,1,0,1,0,1.7325-1ZM50.29,27.6383a15.4657,15.4657,0,0,0-5.0981-.9014,14.2694,14.2694,0,0,0-9.0984-8.3434A13.0377,13.0377,0,0,1,39.62,14.8062,18.8753,18.8753,0,0,1,50.29,27.6383ZM44.2139,32a12.1356,12.1356,0,0,1-2.2113,6.988,24.351,24.351,0,0,0-4.7147-4.8152,5.7019,5.7019,0,0,0,.1691-3.8846,21.55,21.55,0,0,1,6.3058-1.5322A12.1531,12.1531,0,0,1,44.2139,32ZM19.7861,32a12.1356,12.1356,0,0,1,2.2113-6.988,24.3537,24.3537,0,0,0,4.7147,4.8152,5.7019,5.7019,0,0,0-.1691,3.8846,21.5549,21.5549,0,0,1-6.3058,1.5323A12.1579,12.1579,0,0,1,19.7861,32ZM32,35.72l-.0024,0-.0083-.0027-.01.0009A3.7182,3.7182,0,0,1,32,28.2812l.0024,0,.0083.0027c.0138.0016.0273.0013.0409.0023A3.7168,3.7168,0,0,1,32,35.72Zm1.2491-9.2968a21.5414,21.5414,0,0,1,1.8367-6.226,12.246,12.246,0,0,1,7.965,6.6357,24.358,24.358,0,0,0-6.53,1.6774A5.7216,5.7216,0,0,0,33.2491,26.4228Zm-2.0117-.0847A5.7027,5.7027,0,0,0,27.796,28.136a21.5684,21.5684,0,0,1-4.4879-4.7027A12.1731,12.1731,0,0,1,32,19.7865c.3552,0,.7047.0235,1.0522.0533A24.3428,24.3428,0,0,0,31.2374,26.3381ZM27.4789,35.49a5.7218,5.7218,0,0,0,3.272,2.0879,21.5414,21.5414,0,0,1-1.8367,6.226A12.247,12.247,0,0,1,20.9453,37.16,24.3717,24.3717,0,0,0,27.4789,35.49Zm5.2837,2.1726a5.7032,5.7032,0,0,0,3.4414-1.7979,21.5684,21.5684,0,0,1,4.4879,4.7027A12.1731,12.1731,0,0,1,32,44.2143c-.3552,0-.7047-.0235-1.0522-.0533A24.3428,24.3428,0,0,0,32.7626,37.6627Zm4.6133-23.6909a15.459,15.459,0,0,0-3.3418,3.9775A13.913,13.913,0,0,0,22.27,21.6671a13.0233,13.0233,0,0,1-1.3691-4.8324,18.6659,18.6659,0,0,1,16.4749-2.8629ZM13.1792,32a18.7522,18.7522,0,0,1,5.9-13.6486,15.4711,15.4711,0,0,0,1.77,4.8624,14.0337,14.0337,0,0,0-2.6708,12.0463,13.0154,13.0154,0,0,1-4.8869-1.2417A18.9275,18.9275,0,0,1,13.1792,32Zm.5293,4.3558a15.4707,15.4707,0,0,0,5.1.9075,14.2694,14.2694,0,0,0,9.0985,8.3436A13.0387,13.0387,0,0,1,24.38,49.1946,18.8751,18.8751,0,0,1,13.7085,36.3562ZM26.6241,50.029a15.459,15.459,0,0,0,3.3418-3.9775A13.9128,13.9128,0,0,0,41.73,42.3336,13.0243,13.0243,0,0,1,43.099,47.166a18.6657,18.6657,0,0,1-16.4749,2.863ZM50.8208,32a18.7522,18.7522,0,0,1-5.9,13.6486,15.4711,15.4711,0,0,0-1.77-4.8624,14.034,14.034,0,0,0,2.6709-12.046,13.017,13.017,0,0,1,4.8869,1.2418A18.92,18.92,0,0,1,50.8208,32Z"/><path d="M62.1753,40.7357l-.9439-1.6347a1,1,0,1,0-1.7324,1l.9439,1.6347a1,1,0,1,0,1.7324-1Z"/></g></svg>